<svg xmlns="http://www.w3.org/2000/svg" xmlns:xlink="http://www.w3.org/1999/xlink" viewBox="0,0,256,256" width="30px" height="30px"><g fill="#fcc419" fill-rule="nonzero" stroke="none" stroke-width="1" stroke-linecap="butt" stroke-linejoin="none" stroke-miterlimit="10" stroke-dasharray="" stroke-dashoffset="0" font-family="none" font-weight="none" font-size="none" text-anchor="none" style="mix-blend-mode: normal"><path transform="scale(8.53333,8.53333)" d="M27.93097,6.60012c0.16075,0.37985 0.07183,0.81942 -0.22393,1.10691l-16,16c-0.39053,0.39037 -1.02353,0.39037 -1.41406,0l-7,-7c-0.26124,-0.25082 -0.36647,-0.62327 -0.27511,-0.97371c0.09136,-0.35044 0.36503,-0.62411 0.71547,-0.71547c0.35044,-0.09136 0.72289,0.01388 0.97371,0.27511l6.29297,6.29297l15.29297,-15.29297c0.18112,-0.18641 0.4277,-0.29499 0.6875,-0.30273c0.41228,-0.01216 0.78974,0.23004 0.9505,0.60988z" id="strokeMainSVG" stroke="#fcc419" stroke-linejoin="round"></path><g transform="scale(8.53333,8.53333)" stroke="none" stroke-linejoin="miter"><path d="M26.98047,5.99023c-0.2598,0.00774 -0.50638,0.11632 -0.6875,0.30273l-15.29297,15.29297l-6.29297,-6.29297c-0.25082,-0.26124 -0.62327,-0.36647 -0.97371,-0.27511c-0.35044,0.09136 -0.62411,0.36503 -0.71547,0.71547c-0.09136,0.35044 0.01388,0.72289 0.27511,0.97371l7,7c0.39053,0.39037 1.02353,0.39037 1.41406,0l16,-16c0.29576,-0.28749 0.38469,-0.72707 0.22393,-1.10691c-0.16075,-0.37985 -0.53821,-0.62204 -0.9505,-0.60988z"></path></g></g></svg>